<svg width="235" height="44" viewBox="0 0 235 44" fill="none" xmlns="http://www.w3.org/2000/svg">
<path d="M14.2099 1.13387C12.4255 1.631 10.1687 2.70376 9.01412 3.6457C7.5971 4.74462 5.6815 8.30303 4.39568 12.1754C3.10986 16.0217 1.64036 22.7722 1.16802 26.9324C0.905605 29.2087 0.958087 34.2585 1.27298 36.875C1.6666 40.1195 2.13894 41.3492 3.39852 42.2911C4.10703 42.8406 4.76306 43.0237 6.04887 42.9976C7.30845 42.9976 8.56803 42.6051 10.1687 41.7678C12.2943 40.6166 13.3964 39.7793 16.3879 37.032C17.3851 36.1162 18.5659 35.122 19.012 34.808C21.1113 33.3951 25.3099 32.741 31.9751 32.741C38.6404 32.741 42.839 33.4213 44.9383 34.808C45.3844 35.122 46.5652 36.1162 47.5624 37.032C50.5276 39.7793 51.656 40.6166 53.7816 41.7678C55.3823 42.6313 56.6156 42.9976 57.9014 42.9976C59.161 43.0237 59.8433 42.8406 60.5518 42.2911C61.7064 41.4277 62.2575 40.1456 62.5723 37.6076C63.4121 31.1711 63.0447 26.1474 61.2078 18.2718C59.9482 12.8295 59.1348 10.4485 57.5865 7.43959C56.0645 4.45681 55.3035 3.6457 53.0468 2.49444C51.1837 1.52635 49.8191 1.10771 48.4808 1.02921C46.6964 0.924555 45.2794 1.36936 42.8127 2.78226C40.0574 4.37831 38.5617 4.63996 32.0014 4.63996C25.5723 4.63996 23.8929 4.37831 21.4262 2.91308C20.0617 2.10197 19.2482 1.7095 18.1461 1.34319C17.0964 0.976884 15.1283 0.898389 14.2099 1.13387ZM50.1865 6.31451C51.8659 6.73314 52.6532 8.774 51.656 10.1869C50.5014 11.8091 48.1397 11.6521 47.2475 9.89909C46.5652 8.61701 47.3 6.86397 48.6908 6.36684C49.3206 6.15752 49.5042 6.15752 50.1865 6.31451ZM16.3879 8.14604C17.1751 8.48619 17.9361 9.2188 18.3297 9.97758C18.8021 10.8933 18.8546 12.2016 18.4872 13.1697C18.0148 14.4518 16.834 15.3937 15.4695 15.603C14.1312 15.8123 12.9765 15.446 12.0319 14.5041C10.3524 12.8295 10.5361 10.0299 12.4255 8.59085C13.5276 7.77974 15.1546 7.59658 16.3879 8.14604ZM46.0404 11.2858C47.3787 11.9661 47.7723 13.8238 46.8539 15.0274C46.3291 15.7338 45.6206 16.0478 44.7808 16.0478C43.9936 16.0478 43.5213 15.8123 42.944 15.2367C42.4454 14.7396 42.2879 14.2948 42.2879 13.5098C42.2879 12.7511 42.5241 12.2016 43.0489 11.6783C43.8624 10.9195 45.017 10.7625 46.0404 11.2858ZM55.3035 11.155C55.7759 11.3382 56.3794 11.9399 56.6156 12.4632C57.4816 14.3733 55.7496 16.4926 53.7028 15.9955C52.5482 15.7338 51.7347 14.6872 51.7347 13.5098C51.761 11.7045 53.5716 10.5009 55.3035 11.155ZM50.8163 16.0217C52.3383 16.8851 52.5482 18.9521 51.2624 20.1295C50.1078 21.1761 48.5596 20.993 47.4837 19.6847C47.195 19.3184 47.0901 19.0568 47.0376 18.5335C46.9326 17.3822 47.4312 16.4665 48.4546 15.9432C49.0319 15.6553 50.2128 15.6815 50.8163 16.0217ZM25.2312 19.1091C25.3886 19.1876 25.4411 19.5539 25.4673 20.7313L25.5198 22.2227H26.9368C28.7212 22.2227 28.7475 22.2489 28.7475 23.6095C28.7475 25.1008 28.7737 25.0747 27.0156 25.0747H25.5198V26.5137C25.5198 28.3453 25.4673 28.4499 24.0503 28.4499C22.5808 28.4499 22.5283 28.3976 22.5283 26.5661V25.1008H21.0588C20.0879 25.1008 19.5368 25.0485 19.4319 24.9439C19.3269 24.8392 19.2744 24.3944 19.2744 23.7141C19.2744 22.2489 19.2744 22.2489 21.0851 22.2489H22.5021V20.836C22.5021 19.0306 22.5021 19.0306 23.9716 19.0306C24.5489 18.9783 25.1262 19.0306 25.2312 19.1091ZM40.451 20.1295C40.8184 20.3127 41.3432 20.6528 41.6057 20.9145C42.7603 22.0657 43.0752 23.9234 42.3666 25.3363C41.1858 27.7173 38.1418 28.3453 36.2 26.5922C34.4943 25.0747 34.4156 22.4844 36.0163 20.9145C37.2234 19.7371 38.9028 19.4231 40.451 20.1295Z" stroke="#E4597A" stroke-width="2"/>
<path d="M92.9395 29.0811C92.9395 29.3545 92.8906 29.6084 92.793 29.8428C92.6953 30.0771 92.5586 30.2822 92.3828 30.458C92.2168 30.624 92.0166 30.7559 91.7822 30.8535C91.5479 30.9512 91.2939 31 91.0205 31H77.2803C76.9287 31 76.5479 30.9609 76.1377 30.8828C75.7373 30.7949 75.3369 30.6631 74.9365 30.4873C74.5459 30.3115 74.1699 30.0869 73.8086 29.8135C73.4473 29.5303 73.125 29.1934 72.8418 28.8027C72.5684 28.4023 72.3486 27.9434 72.1826 27.4258C72.0166 26.8984 71.9336 26.3076 71.9336 25.6533V15.3408C71.9336 14.9893 71.9727 14.6133 72.0508 14.2129C72.1387 13.8027 72.2705 13.4023 72.4463 13.0117C72.6221 12.6113 72.8516 12.2305 73.1348 11.8691C73.418 11.5078 73.7549 11.1904 74.1455 10.917C74.5459 10.6338 75.0049 10.4092 75.5225 10.2432C76.04 10.0771 76.626 9.99414 77.2803 9.99414H92.7637V13.8027H77.2803C76.7822 13.8027 76.4014 13.9346 76.1377 14.1982C75.874 14.4619 75.7422 14.8525 75.7422 15.3701V25.6533C75.7422 26.1416 75.874 26.5225 76.1377 26.7959C76.4111 27.0596 76.792 27.1914 77.2803 27.1914H89.1309V22.416H78.9941V18.5781H91.0205C91.2939 18.5781 91.5479 18.6318 91.7822 18.7393C92.0166 18.8369 92.2168 18.9736 92.3828 19.1494C92.5586 19.3252 92.6953 19.5303 92.793 19.7646C92.8906 19.9893 92.9395 20.2334 92.9395 20.4971V29.0811ZM114.032 25.7559C114.032 26.2832 113.939 26.8545 113.754 27.4697C113.568 28.0752 113.265 28.6416 112.846 29.1689C112.435 29.6865 111.893 30.1211 111.22 30.4727C110.555 30.8242 109.745 31 108.788 31H101.918C101.39 31 100.819 30.9072 100.204 30.7217C99.5984 30.5361 99.032 30.2383 98.5047 29.8281C97.9871 29.4082 97.5525 28.8662 97.201 28.2021C96.8494 27.5283 96.6736 26.7129 96.6736 25.7559C96.6736 25.2285 96.7664 24.6572 96.952 24.042C97.1375 23.4268 97.4354 22.8604 97.8455 22.3428C98.2654 21.8154 98.8074 21.376 99.4715 21.0244C100.145 20.6729 100.961 20.4971 101.918 20.4971H108.788V24.1299H101.918C101.4 24.1299 101 24.291 100.717 24.6133C100.433 24.9258 100.292 25.3164 100.292 25.7852C100.292 26.2832 100.453 26.6738 100.775 26.957C101.107 27.2305 101.498 27.3672 101.947 27.3672H108.788C109.305 27.3672 109.706 27.2109 109.989 26.8984C110.272 26.5859 110.414 26.1953 110.414 25.7266V20.4092C110.414 19.9111 110.258 19.5156 109.945 19.2227C109.642 18.9297 109.257 18.7832 108.788 18.7832H100.424V15.165H108.788C109.315 15.165 109.882 15.2578 110.487 15.4434C111.102 15.6289 111.669 15.9316 112.186 16.3516C112.714 16.7617 113.153 17.3037 113.505 17.9775C113.856 18.6416 114.032 19.4521 114.032 20.4092V25.7559ZM132.62 31H128.811V20.4971C128.811 19.999 128.679 19.623 128.416 19.3691C128.152 19.1055 127.761 18.9736 127.244 18.9736H122.293V31H118.484V17.0547C118.484 16.791 118.533 16.5469 118.63 16.3223C118.728 16.0879 118.865 15.8877 119.041 15.7217C119.216 15.5459 119.421 15.4092 119.656 15.3115C119.89 15.2139 120.139 15.165 120.403 15.165H127.273C127.8 15.165 128.367 15.2578 128.972 15.4434C129.578 15.6289 130.154 15.9268 130.701 16.3369V15.165H135.857C136.218 15.165 136.599 15.209 137 15.2969C137.4 15.375 137.796 15.502 138.186 15.6777C138.587 15.8535 138.967 16.083 139.329 16.3662C139.69 16.6396 140.007 16.9766 140.281 17.377C140.554 17.7676 140.774 18.2217 140.94 18.7393C141.106 19.2568 141.189 19.8428 141.189 20.4971V31H137.38V20.4971C137.38 19.999 137.254 19.623 137 19.3691C136.755 19.1055 136.375 18.9736 135.857 18.9736H132.429C132.556 19.4424 132.62 19.9502 132.62 20.4971V31ZM162.941 20.4092C162.941 20.9365 162.848 21.5078 162.662 22.123C162.477 22.7285 162.174 23.2949 161.754 23.8223C161.344 24.3398 160.802 24.7744 160.128 25.126C159.464 25.4775 158.654 25.6533 157.697 25.6533H150.827V22.0352H157.697C158.214 22.0352 158.615 21.8789 158.898 21.5664C159.181 21.2441 159.323 20.8486 159.323 20.3799C159.323 19.8818 159.162 19.4912 158.839 19.208C158.527 18.9248 158.146 18.7832 157.697 18.7832H150.827C150.309 18.7832 149.909 18.9443 149.625 19.2666C149.342 19.5791 149.201 19.9697 149.201 20.4385V25.7559C149.201 26.2637 149.357 26.6592 149.669 26.9424C149.992 27.2256 150.387 27.3672 150.856 27.3672H157.697V31H150.827C150.299 31 149.728 30.9072 149.113 30.7217C148.507 30.5361 147.941 30.2383 147.413 29.8281C146.896 29.4082 146.461 28.8662 146.11 28.2021C145.758 27.5283 145.582 26.7129 145.582 25.7559V20.4092C145.582 19.8818 145.675 19.3154 145.861 18.71C146.046 18.0947 146.344 17.5283 146.754 17.0107C147.174 16.4834 147.716 16.0439 148.38 15.6924C149.054 15.3408 149.87 15.165 150.827 15.165H157.697C158.224 15.165 158.79 15.2578 159.396 15.4434C160.011 15.6289 160.578 15.9316 161.095 16.3516C161.622 16.7617 162.062 17.3037 162.413 17.9775C162.765 18.6416 162.941 19.4521 162.941 20.4092ZM170.967 18.5781H184.341V9.99414H188.15V31H184.341V22.416H170.967V31H167.158V9.99414H170.967V18.5781ZM210.619 29.0811C210.619 29.3545 210.57 29.6084 210.473 29.8428C210.375 30.0771 210.238 30.2822 210.062 30.458C209.896 30.624 209.696 30.7559 209.462 30.8535C209.237 30.9512 208.993 31 208.729 31H200.116C199.647 31 199.145 30.9463 198.607 30.8389C198.08 30.7314 197.558 30.5605 197.04 30.3262C196.522 30.082 196.02 29.7793 195.531 29.418C195.053 29.0469 194.633 28.6025 194.271 28.085C193.91 27.5576 193.617 26.9521 193.393 26.2686C193.178 25.585 193.07 24.8135 193.07 23.9541V15.165H196.879V23.9541C196.879 24.4521 196.962 24.9014 197.128 25.3018C197.304 25.6924 197.538 26.0293 197.831 26.3125C198.124 26.5957 198.466 26.8154 198.856 26.9717C199.257 27.1182 199.687 27.1914 200.146 27.1914H206.811V15.165H210.619V29.0811ZM232.854 25.6533C232.854 26.0146 232.81 26.3955 232.722 26.7959C232.644 27.1963 232.517 27.5967 232.342 27.9971C232.166 28.3877 231.936 28.7637 231.653 29.125C231.38 29.4863 231.043 29.8086 230.642 30.0918C230.252 30.3652 229.798 30.585 229.28 30.751C228.762 30.917 228.177 31 227.522 31H220.652C220.291 31 219.91 30.9609 219.51 30.8828C219.109 30.7949 218.709 30.6631 218.308 30.4873C217.918 30.3115 217.542 30.0869 217.18 29.8135C216.819 29.5303 216.497 29.1934 216.214 28.8027C215.94 28.4023 215.721 27.9434 215.554 27.4258C215.388 26.8984 215.305 26.3076 215.305 25.6533V8.4707H219.114V25.6533C219.114 26.1221 219.261 26.498 219.554 26.7812C219.846 27.0547 220.213 27.1914 220.652 27.1914H227.522C228.001 27.1914 228.372 27.0498 228.636 26.7666C228.909 26.4834 229.046 26.1123 229.046 25.6533V20.4971C229.046 20.0186 228.904 19.6475 228.621 19.3838C228.338 19.1104 227.971 18.9736 227.522 18.9736H220.652V15.165H227.522C227.884 15.165 228.264 15.209 228.665 15.2969C229.065 15.375 229.461 15.502 229.851 15.6777C230.252 15.8535 230.633 16.083 230.994 16.3662C231.355 16.6396 231.673 16.9766 231.946 17.377C232.22 17.7676 232.439 18.2217 232.605 18.7393C232.771 19.2568 232.854 19.8428 232.854 20.4971V25.6533Z" fill="#E4597A"/>
</svg>
