<svg width="161" height="44" viewBox="0 0 161 44" fill="none" xmlns="http://www.w3.org/2000/svg">
<path d="M14.2099 1.13387C12.4255 1.631 10.1687 2.70376 9.01412 3.6457C7.5971 4.74462 5.6815 8.30303 4.39568 12.1754C3.10986 16.0217 1.64036 22.7722 1.16802 26.9324C0.905605 29.2087 0.958087 34.2585 1.27298 36.875C1.6666 40.1195 2.13894 41.3492 3.39852 42.2911C4.10703 42.8406 4.76306 43.0237 6.04887 42.9976C7.30845 42.9976 8.56803 42.6051 10.1687 41.7678C12.2943 40.6166 13.3964 39.7793 16.3879 37.032C17.3851 36.1162 18.5659 35.122 19.012 34.808C21.1113 33.3951 25.3099 32.741 31.9751 32.741C38.6404 32.741 42.839 33.4213 44.9383 34.808C45.3844 35.122 46.5652 36.1162 47.5624 37.032C50.5276 39.7793 51.656 40.6166 53.7816 41.7678C55.3823 42.6313 56.6156 42.9976 57.9014 42.9976C59.161 43.0237 59.8433 42.8406 60.5518 42.2911C61.7064 41.4277 62.2575 40.1456 62.5723 37.6076C63.4121 31.1711 63.0447 26.1474 61.2078 18.2718C59.9482 12.8295 59.1348 10.4485 57.5865 7.43959C56.0645 4.45681 55.3035 3.6457 53.0468 2.49444C51.1837 1.52635 49.8191 1.10771 48.4808 1.02921C46.6964 0.924555 45.2794 1.36936 42.8127 2.78226C40.0574 4.37831 38.5617 4.63996 32.0014 4.63996C25.5723 4.63996 23.8929 4.37831 21.4262 2.91308C20.0617 2.10197 19.2482 1.7095 18.1461 1.34319C17.0964 0.976884 15.1283 0.898389 14.2099 1.13387ZM50.1865 6.31451C51.8659 6.73314 52.6532 8.774 51.656 10.1869C50.5014 11.8091 48.1397 11.6521 47.2475 9.89909C46.5652 8.61701 47.3 6.86397 48.6908 6.36684C49.3206 6.15752 49.5042 6.15752 50.1865 6.31451ZM16.3879 8.14604C17.1751 8.48619 17.9361 9.2188 18.3297 9.97758C18.8021 10.8933 18.8546 12.2016 18.4872 13.1697C18.0148 14.4518 16.834 15.3937 15.4695 15.603C14.1312 15.8123 12.9765 15.446 12.0319 14.5041C10.3524 12.8295 10.5361 10.0299 12.4255 8.59085C13.5276 7.77974 15.1546 7.59658 16.3879 8.14604ZM46.0404 11.2858C47.3787 11.9661 47.7723 13.8238 46.8539 15.0274C46.3291 15.7338 45.6206 16.0478 44.7808 16.0478C43.9936 16.0478 43.5213 15.8123 42.944 15.2367C42.4454 14.7396 42.2879 14.2948 42.2879 13.5098C42.2879 12.7511 42.5241 12.2016 43.0489 11.6783C43.8624 10.9195 45.017 10.7625 46.0404 11.2858ZM55.3035 11.155C55.7759 11.3382 56.3794 11.9399 56.6156 12.4632C57.4816 14.3733 55.7496 16.4926 53.7028 15.9955C52.5482 15.7338 51.7347 14.6872 51.7347 13.5098C51.761 11.7045 53.5716 10.5009 55.3035 11.155ZM50.8163 16.0217C52.3383 16.8851 52.5482 18.9521 51.2624 20.1295C50.1078 21.1761 48.5596 20.993 47.4837 19.6847C47.195 19.3184 47.0901 19.0568 47.0376 18.5335C46.9326 17.3822 47.4312 16.4665 48.4546 15.9432C49.0319 15.6553 50.2128 15.6815 50.8163 16.0217ZM25.2312 19.1091C25.3886 19.1876 25.4411 19.5539 25.4673 20.7313L25.5198 22.2227H26.9368C28.7212 22.2227 28.7475 22.2489 28.7475 23.6095C28.7475 25.1008 28.7737 25.0747 27.0156 25.0747H25.5198V26.5137C25.5198 28.3453 25.4673 28.4499 24.0503 28.4499C22.5808 28.4499 22.5283 28.3976 22.5283 26.5661V25.1008H21.0588C20.0879 25.1008 19.5368 25.0485 19.4319 24.9439C19.3269 24.8392 19.2744 24.3944 19.2744 23.7141C19.2744 22.2489 19.2744 22.2489 21.0851 22.2489H22.5021V20.836C22.5021 19.0306 22.5021 19.0306 23.9716 19.0306C24.5489 18.9783 25.1262 19.0306 25.2312 19.1091ZM40.451 20.1295C40.8184 20.3127 41.3432 20.6528 41.6057 20.9145C42.7603 22.0657 43.0752 23.9234 42.3666 25.3363C41.1858 27.7173 38.1418 28.3453 36.2 26.5922C34.4943 25.0747 34.4156 22.4844 36.0163 20.9145C37.2234 19.7371 38.9028 19.4231 40.451 20.1295Z" stroke="#E4597A" stroke-width="2"/>
<path d="M92.9395 29.0811C92.9395 29.3545 92.8906 29.6084 92.793 29.8428C92.6953 30.0771 92.5586 30.2822 92.3828 30.458C92.2168 30.624 92.0166 30.7559 91.7822 30.8535C91.5479 30.9512 91.2939 31 91.0205 31H77.2803C76.9287 31 76.5479 30.9609 76.1377 30.8828C75.7373 30.7949 75.3369 30.6631 74.9365 30.4873C74.5459 30.3115 74.1699 30.0869 73.8086 29.8135C73.4473 29.5303 73.125 29.1934 72.8418 28.8027C72.5684 28.4023 72.3486 27.9434 72.1826 27.4258C72.0166 26.8984 71.9336 26.3076 71.9336 25.6533V15.3408C71.9336 14.9893 71.9727 14.6133 72.0508 14.2129C72.1387 13.8027 72.2705 13.4023 72.4463 13.0117C72.6221 12.6113 72.8516 12.2305 73.1348 11.8691C73.418 11.5078 73.7549 11.1904 74.1455 10.917C74.5459 10.6338 75.0049 10.4092 75.5225 10.2432C76.04 10.0771 76.626 9.99414 77.2803 9.99414H92.7637V13.8027H77.2803C76.7822 13.8027 76.4014 13.9346 76.1377 14.1982C75.874 14.4619 75.7422 14.8525 75.7422 15.3701V25.6533C75.7422 26.1416 75.874 26.5225 76.1377 26.7959C76.4111 27.0596 76.792 27.1914 77.2803 27.1914H89.1309V22.416H78.9941V18.5781H91.0205C91.2939 18.5781 91.5479 18.6318 91.7822 18.7393C92.0166 18.8369 92.2168 18.9736 92.3828 19.1494C92.5586 19.3252 92.6953 19.5303 92.793 19.7646C92.8906 19.9893 92.9395 20.2334 92.9395 20.4971V29.0811ZM115.292 31H111.483V20.4971C111.483 19.999 111.356 19.623 111.102 19.3691C110.848 19.1055 110.468 18.9736 109.96 18.9736H103.09V15.165H109.96C110.321 15.165 110.702 15.209 111.102 15.2969C111.503 15.375 111.898 15.502 112.289 15.6777C112.689 15.8535 113.07 16.083 113.431 16.3662C113.793 16.6396 114.11 16.9766 114.384 17.377C114.657 17.7676 114.877 18.2217 115.043 18.7393C115.209 19.2568 115.292 19.8428 115.292 20.4971V31ZM101.552 31H97.743V8.4707H101.552V31ZM137.293 29.0811C137.293 29.3545 137.244 29.6084 137.146 29.8428C137.048 30.0771 136.912 30.2822 136.736 30.458C136.57 30.624 136.37 30.7559 136.135 30.8535C135.911 30.9512 135.667 31 135.403 31H126.79C126.321 31 125.818 30.9463 125.281 30.8389C124.754 30.7314 124.231 30.5605 123.713 30.3262C123.196 30.082 122.693 29.7793 122.205 29.418C121.726 29.0469 121.306 28.6025 120.945 28.085C120.584 27.5576 120.291 26.9521 120.066 26.2686C119.851 25.585 119.744 24.8135 119.744 23.9541V15.165H123.552V23.9541C123.552 24.4521 123.635 24.9014 123.801 25.3018C123.977 25.6924 124.212 26.0293 124.504 26.3125C124.797 26.5957 125.139 26.8154 125.53 26.9717C125.93 27.1182 126.36 27.1914 126.819 27.1914H133.484V15.165H137.293V29.0811ZM159.528 25.6533C159.528 26.0146 159.484 26.3955 159.396 26.7959C159.318 27.1963 159.191 27.5967 159.015 27.9971C158.839 28.3877 158.61 28.7637 158.327 29.125C158.053 29.4863 157.716 29.8086 157.316 30.0918C156.925 30.3652 156.471 30.585 155.954 30.751C155.436 30.917 154.85 31 154.196 31H147.326C146.964 31 146.583 30.9609 146.183 30.8828C145.783 30.7949 145.382 30.6631 144.982 30.4873C144.591 30.3115 144.215 30.0869 143.854 29.8135C143.493 29.5303 143.17 29.1934 142.887 28.8027C142.614 28.4023 142.394 27.9434 142.228 27.4258C142.062 26.8984 141.979 26.3076 141.979 25.6533V8.4707H145.787V25.6533C145.787 26.1221 145.934 26.498 146.227 26.7812C146.52 27.0547 146.886 27.1914 147.326 27.1914H154.196C154.674 27.1914 155.045 27.0498 155.309 26.7666C155.582 26.4834 155.719 26.1123 155.719 25.6533V20.4971C155.719 20.0186 155.578 19.6475 155.294 19.3838C155.011 19.1104 154.645 18.9736 154.196 18.9736H147.326V15.165H154.196C154.557 15.165 154.938 15.209 155.338 15.2969C155.739 15.375 156.134 15.502 156.525 15.6777C156.925 15.8535 157.306 16.083 157.667 16.3662C158.029 16.6396 158.346 16.9766 158.62 17.377C158.893 17.7676 159.113 18.2217 159.279 18.7393C159.445 19.2568 159.528 19.8428 159.528 20.4971V25.6533Z" fill="#E4597A"/>
</svg>
