<svg width="165" height="42" viewBox="0 0 165 42" fill="none" xmlns="http://www.w3.org/2000/svg">
<path d="M91.9395 30.0811C91.9395 30.3545 91.8906 30.6084 91.793 30.8428C91.6953 31.0771 91.5586 31.2822 91.3828 31.458C91.2168 31.624 91.0166 31.7559 90.7822 31.8535C90.5479 31.9512 90.2939 32 90.0205 32H76.2803C75.9287 32 75.5479 31.9609 75.1377 31.8828C74.7373 31.7949 74.3369 31.6631 73.9365 31.4873C73.5459 31.3115 73.1699 31.0869 72.8086 30.8135C72.4473 30.5303 72.125 30.1934 71.8418 29.8027C71.5684 29.4023 71.3486 28.9434 71.1826 28.4258C71.0166 27.8984 70.9336 27.3076 70.9336 26.6533V16.3408C70.9336 15.9893 70.9727 15.6133 71.0508 15.2129C71.1387 14.8027 71.2705 14.4023 71.4463 14.0117C71.6221 13.6113 71.8516 13.2305 72.1348 12.8691C72.418 12.5078 72.7549 12.1904 73.1455 11.917C73.5459 11.6338 74.0049 11.4092 74.5225 11.2432C75.04 11.0771 75.626 10.9941 76.2803 10.9941H91.7637V14.8027H76.2803C75.7822 14.8027 75.4014 14.9346 75.1377 15.1982C74.874 15.4619 74.7422 15.8525 74.7422 16.3701V26.6533C74.7422 27.1416 74.874 27.5225 75.1377 27.7959C75.4111 28.0596 75.792 28.1914 76.2803 28.1914H88.1309V23.416H77.9941V19.5781H90.0205C90.2939 19.5781 90.5479 19.6318 90.7822 19.7393C91.0166 19.8369 91.2168 19.9736 91.3828 20.1494C91.5586 20.3252 91.6953 20.5303 91.793 20.7646C91.8906 20.9893 91.9395 21.2334 91.9395 21.4971V30.0811ZM100.947 19.5781H114.321V10.9941H118.13V32H114.321V23.416H100.947V32H97.1385V10.9941H100.947V19.5781ZM140.599 30.0811C140.599 30.3545 140.55 30.6084 140.453 30.8428C140.355 31.0771 140.218 31.2822 140.043 31.458C139.877 31.624 139.676 31.7559 139.442 31.8535C139.217 31.9512 138.973 32 138.71 32H130.096C129.628 32 129.125 31.9463 128.588 31.8389C128.06 31.7314 127.538 31.5605 127.02 31.3262C126.503 31.082 126 30.7793 125.511 30.418C125.033 30.0469 124.613 29.6025 124.252 29.085C123.89 28.5576 123.597 27.9521 123.373 27.2686C123.158 26.585 123.05 25.8135 123.05 24.9541V16.165H126.859V24.9541C126.859 25.4521 126.942 25.9014 127.108 26.3018C127.284 26.6924 127.518 27.0293 127.811 27.3125C128.104 27.5957 128.446 27.8154 128.837 27.9717C129.237 28.1182 129.667 28.1914 130.126 28.1914H136.791V16.165H140.599V30.0811ZM162.834 26.6533C162.834 27.0146 162.79 27.3955 162.703 27.7959C162.624 28.1963 162.497 28.5967 162.322 28.9971C162.146 29.3877 161.916 29.7637 161.633 30.125C161.36 30.4863 161.023 30.8086 160.622 31.0918C160.232 31.3652 159.778 31.585 159.26 31.751C158.743 31.917 158.157 32 157.502 32H150.632C150.271 32 149.89 31.9609 149.49 31.8828C149.089 31.7949 148.689 31.6631 148.288 31.4873C147.898 31.3115 147.522 31.0869 147.161 30.8135C146.799 30.5303 146.477 30.1934 146.194 29.8027C145.92 29.4023 145.701 28.9434 145.535 28.4258C145.369 27.8984 145.286 27.3076 145.286 26.6533V9.4707H149.094V26.6533C149.094 27.1221 149.241 27.498 149.534 27.7812C149.827 28.0547 150.193 28.1914 150.632 28.1914H157.502C157.981 28.1914 158.352 28.0498 158.616 27.7666C158.889 27.4834 159.026 27.1123 159.026 26.6533V21.4971C159.026 21.0186 158.884 20.6475 158.601 20.3838C158.318 20.1104 157.952 19.9736 157.502 19.9736H150.632V16.165H157.502C157.864 16.165 158.245 16.209 158.645 16.2969C159.045 16.375 159.441 16.502 159.831 16.6777C160.232 16.8535 160.613 17.083 160.974 17.3662C161.335 17.6396 161.653 17.9766 161.926 18.377C162.2 18.7676 162.419 19.2217 162.585 19.7393C162.751 20.2568 162.834 20.8428 162.834 21.4971V26.6533Z" fill="#E4597A"/>
<path d="M13.2099 0.133873C11.4255 0.631004 9.16874 1.70376 8.01412 2.6457C6.5971 3.74462 4.6815 7.30303 3.39568 11.1754C2.10986 15.0217 0.640357 21.7722 0.168016 25.9324C-0.0943952 28.2087 -0.041913 33.2585 0.272981 35.875C0.666599 39.1195 1.13894 40.3492 2.39852 41.2911C3.10703 41.8406 3.76306 42.0237 5.04887 41.9976C6.30845 41.9976 7.56803 41.6051 9.16874 40.7678C11.2943 39.6166 12.3964 38.7793 15.3879 36.032C16.3851 35.1162 17.5659 34.122 18.012 33.808C20.1113 32.3951 24.3099 31.741 30.9751 31.741C37.6404 31.741 41.839 32.4213 43.9383 33.808C44.3844 34.122 45.5652 35.1162 46.5624 36.032C49.5276 38.7793 50.656 39.6166 52.7816 40.7678C54.3823 41.6313 55.6156 41.9976 56.9014 41.9976C58.161 42.0237 58.8433 41.8406 59.5518 41.2911C60.7064 40.4277 61.2575 39.1456 61.5723 36.6076C62.4121 30.1711 62.0447 25.1474 60.2078 17.2718C58.9482 11.8295 58.1348 9.44855 56.5865 6.43959C55.0645 3.45681 54.3035 2.6457 52.0468 1.49444C50.1837 0.526345 48.8191 0.107708 47.4808 0.029214C45.6964 -0.0754453 44.2794 0.369356 41.8127 1.78226C39.0574 3.37831 37.5617 3.63996 31.0014 3.63996C24.5723 3.63996 22.8929 3.37831 20.4262 1.91308C19.0617 1.10197 18.2482 0.709498 17.1461 0.343191C16.0964 -0.0231165 14.1283 -0.101611 13.2099 0.133873ZM49.1865 5.31451C50.8659 5.73314 51.6532 7.774 50.656 9.1869C49.5014 10.8091 47.1397 10.6521 46.2475 8.89909C45.5652 7.61701 46.3 5.86397 47.6908 5.36684C48.3206 5.15752 48.5042 5.15752 49.1865 5.31451ZM15.3879 7.14604C16.1751 7.48619 16.9361 8.2188 17.3297 8.97758C17.8021 9.89335 17.8546 11.2016 17.4872 12.1697C17.0148 13.4518 15.834 14.3937 14.4695 14.603C13.1312 14.8123 11.9765 14.446 11.0319 13.5041C9.35242 11.8295 9.53611 9.02991 11.4255 7.59085C12.5276 6.77974 14.1546 6.59658 15.3879 7.14604ZM45.0404 10.2858C46.3787 10.9661 46.7723 12.8238 45.8539 14.0274C45.3291 14.7338 44.6206 15.0478 43.7808 15.0478C42.9936 15.0478 42.5213 14.8123 41.944 14.2367C41.4454 13.7396 41.2879 13.2948 41.2879 12.5098C41.2879 11.7511 41.5241 11.2016 42.0489 10.6783C42.8624 9.91951 44.017 9.76253 45.0404 10.2858ZM54.3035 10.155C54.7759 10.3382 55.3794 10.9399 55.6156 11.4632C56.4816 13.3733 54.7496 15.4926 52.7028 14.9955C51.5482 14.7338 50.7347 13.6872 50.7347 12.5098C50.761 10.7045 52.5716 9.50088 54.3035 10.155ZM49.8163 15.0217C51.3383 15.8851 51.5482 17.9521 50.2624 19.1295C49.1078 20.1761 47.5596 19.993 46.4837 18.6847C46.195 18.3184 46.0901 18.0568 46.0376 17.5335C45.9326 16.3822 46.4312 15.4665 47.4546 14.9432C48.0319 14.6553 49.2128 14.6815 49.8163 15.0217ZM24.2312 18.1091C24.3886 18.1876 24.4411 18.5539 24.4673 19.7313L24.5198 21.2227H25.9368C27.7212 21.2227 27.7475 21.2489 27.7475 22.6095C27.7475 24.1008 27.7737 24.0747 26.0156 24.0747H24.5198V25.5137C24.5198 27.3453 24.4673 27.4499 23.0503 27.4499C21.5808 27.4499 21.5283 27.3976 21.5283 25.5661V24.1008H20.0588C19.0879 24.1008 18.5368 24.0485 18.4319 23.9439C18.3269 23.8392 18.2744 23.3944 18.2744 22.7141C18.2744 21.2489 18.2744 21.2489 20.0851 21.2489H21.5021V19.836C21.5021 18.0306 21.5021 18.0306 22.9716 18.0306C23.5489 17.9783 24.1262 18.0306 24.2312 18.1091ZM39.451 19.1295C39.8184 19.3127 40.3432 19.6528 40.6057 19.9145C41.7603 21.0657 42.0752 22.9234 41.3666 24.3363C40.1858 26.7173 37.1418 27.3453 35.2 25.5922C33.4943 24.0747 33.4156 21.4844 35.0163 19.9145C36.2234 18.7371 37.9028 18.4231 39.451 19.1295Z" fill="#E4597A"/>
</svg>
