<svg width="234" height="42" viewBox="0 0 234 42" fill="none" xmlns="http://www.w3.org/2000/svg">
<path d="M91.9395 30.0811C91.9395 30.3545 91.8906 30.6084 91.793 30.8428C91.6953 31.0771 91.5586 31.2822 91.3828 31.458C91.2168 31.624 91.0166 31.7559 90.7822 31.8535C90.5479 31.9512 90.2939 32 90.0205 32H76.2803C75.9287 32 75.5479 31.9609 75.1377 31.8828C74.7373 31.7949 74.3369 31.6631 73.9365 31.4873C73.5459 31.3115 73.1699 31.0869 72.8086 30.8135C72.4473 30.5303 72.125 30.1934 71.8418 29.8027C71.5684 29.4023 71.3486 28.9434 71.1826 28.4258C71.0166 27.8984 70.9336 27.3076 70.9336 26.6533V16.3408C70.9336 15.9893 70.9727 15.6133 71.0508 15.2129C71.1387 14.8027 71.2705 14.4023 71.4463 14.0117C71.6221 13.6113 71.8516 13.2305 72.1348 12.8691C72.418 12.5078 72.7549 12.1904 73.1455 11.917C73.5459 11.6338 74.0049 11.4092 74.5225 11.2432C75.04 11.0771 75.626 10.9941 76.2803 10.9941H91.7637V14.8027H76.2803C75.7822 14.8027 75.4014 14.9346 75.1377 15.1982C74.874 15.4619 74.7422 15.8525 74.7422 16.3701V26.6533C74.7422 27.1416 74.874 27.5225 75.1377 27.7959C75.4111 28.0596 75.792 28.1914 76.2803 28.1914H88.1309V23.416H77.9941V19.5781H90.0205C90.2939 19.5781 90.5479 19.6318 90.7822 19.7393C91.0166 19.8369 91.2168 19.9736 91.3828 20.1494C91.5586 20.3252 91.6953 20.5303 91.793 20.7646C91.8906 20.9893 91.9395 21.2334 91.9395 21.4971V30.0811ZM113.032 26.7559C113.032 27.2832 112.939 27.8545 112.754 28.4697C112.568 29.0752 112.265 29.6416 111.846 30.1689C111.435 30.6865 110.893 31.1211 110.22 31.4727C109.555 31.8242 108.745 32 107.788 32H100.918C100.39 32 99.8191 31.9072 99.2039 31.7217C98.5984 31.5361 98.032 31.2383 97.5047 30.8281C96.9871 30.4082 96.5525 29.8662 96.201 29.2021C95.8494 28.5283 95.6736 27.7129 95.6736 26.7559C95.6736 26.2285 95.7664 25.6572 95.952 25.042C96.1375 24.4268 96.4354 23.8604 96.8455 23.3428C97.2654 22.8154 97.8074 22.376 98.4715 22.0244C99.1453 21.6729 99.9607 21.4971 100.918 21.4971H107.788V25.1299H100.918C100.4 25.1299 99.9998 25.291 99.7166 25.6133C99.4334 25.9258 99.2918 26.3164 99.2918 26.7852C99.2918 27.2832 99.4529 27.6738 99.7752 27.957C100.107 28.2305 100.498 28.3672 100.947 28.3672H107.788C108.305 28.3672 108.706 28.2109 108.989 27.8984C109.272 27.5859 109.414 27.1953 109.414 26.7266V21.4092C109.414 20.9111 109.258 20.5156 108.945 20.2227C108.642 19.9297 108.257 19.7832 107.788 19.7832H99.4236V16.165H107.788C108.315 16.165 108.882 16.2578 109.487 16.4434C110.102 16.6289 110.669 16.9316 111.186 17.3516C111.714 17.7617 112.153 18.3037 112.505 18.9775C112.856 19.6416 113.032 20.4521 113.032 21.4092V26.7559ZM131.62 32H127.811V21.4971C127.811 20.999 127.679 20.623 127.416 20.3691C127.152 20.1055 126.761 19.9736 126.244 19.9736H121.293V32H117.484V18.0547C117.484 17.791 117.533 17.5469 117.63 17.3223C117.728 17.0879 117.865 16.8877 118.041 16.7217C118.216 16.5459 118.421 16.4092 118.656 16.3115C118.89 16.2139 119.139 16.165 119.403 16.165H126.273C126.8 16.165 127.367 16.2578 127.972 16.4434C128.578 16.6289 129.154 16.9268 129.701 17.3369V16.165H134.857C135.218 16.165 135.599 16.209 136 16.2969C136.4 16.375 136.796 16.502 137.186 16.6777C137.587 16.8535 137.967 17.083 138.329 17.3662C138.69 17.6396 139.007 17.9766 139.281 18.377C139.554 18.7676 139.774 19.2217 139.94 19.7393C140.106 20.2568 140.189 20.8428 140.189 21.4971V32H136.38V21.4971C136.38 20.999 136.254 20.623 136 20.3691C135.755 20.1055 135.375 19.9736 134.857 19.9736H131.429C131.556 20.4424 131.62 20.9502 131.62 21.4971V32ZM161.941 21.4092C161.941 21.9365 161.848 22.5078 161.662 23.123C161.477 23.7285 161.174 24.2949 160.754 24.8223C160.344 25.3398 159.802 25.7744 159.128 26.126C158.464 26.4775 157.654 26.6533 156.697 26.6533H149.827V23.0352H156.697C157.214 23.0352 157.615 22.8789 157.898 22.5664C158.181 22.2441 158.323 21.8486 158.323 21.3799C158.323 20.8818 158.162 20.4912 157.839 20.208C157.527 19.9248 157.146 19.7832 156.697 19.7832H149.827C149.309 19.7832 148.909 19.9443 148.625 20.2666C148.342 20.5791 148.201 20.9697 148.201 21.4385V26.7559C148.201 27.2637 148.357 27.6592 148.669 27.9424C148.992 28.2256 149.387 28.3672 149.856 28.3672H156.697V32H149.827C149.299 32 148.728 31.9072 148.113 31.7217C147.507 31.5361 146.941 31.2383 146.413 30.8281C145.896 30.4082 145.461 29.8662 145.11 29.2021C144.758 28.5283 144.582 27.7129 144.582 26.7559V21.4092C144.582 20.8818 144.675 20.3154 144.861 19.71C145.046 19.0947 145.344 18.5283 145.754 18.0107C146.174 17.4834 146.716 17.0439 147.38 16.6924C148.054 16.3408 148.87 16.165 149.827 16.165H156.697C157.224 16.165 157.79 16.2578 158.396 16.4434C159.011 16.6289 159.578 16.9316 160.095 17.3516C160.622 17.7617 161.062 18.3037 161.413 18.9775C161.765 19.6416 161.941 20.4521 161.941 21.4092ZM169.967 19.5781H183.341V10.9941H187.15V32H183.341V23.416H169.967V32H166.158V10.9941H169.967V19.5781ZM209.619 30.0811C209.619 30.3545 209.57 30.6084 209.473 30.8428C209.375 31.0771 209.238 31.2822 209.062 31.458C208.896 31.624 208.696 31.7559 208.462 31.8535C208.237 31.9512 207.993 32 207.729 32H199.116C198.647 32 198.145 31.9463 197.607 31.8389C197.08 31.7314 196.558 31.5605 196.04 31.3262C195.522 31.082 195.02 30.7793 194.531 30.418C194.053 30.0469 193.633 29.6025 193.271 29.085C192.91 28.5576 192.617 27.9521 192.393 27.2686C192.178 26.585 192.07 25.8135 192.07 24.9541V16.165H195.879V24.9541C195.879 25.4521 195.962 25.9014 196.128 26.3018C196.304 26.6924 196.538 27.0293 196.831 27.3125C197.124 27.5957 197.466 27.8154 197.856 27.9717C198.257 28.1182 198.687 28.1914 199.146 28.1914H205.811V16.165H209.619V30.0811ZM231.854 26.6533C231.854 27.0146 231.81 27.3955 231.722 27.7959C231.644 28.1963 231.517 28.5967 231.342 28.9971C231.166 29.3877 230.936 29.7637 230.653 30.125C230.38 30.4863 230.043 30.8086 229.642 31.0918C229.252 31.3652 228.798 31.585 228.28 31.751C227.762 31.917 227.177 32 226.522 32H219.652C219.291 32 218.91 31.9609 218.51 31.8828C218.109 31.7949 217.709 31.6631 217.308 31.4873C216.918 31.3115 216.542 31.0869 216.18 30.8135C215.819 30.5303 215.497 30.1934 215.214 29.8027C214.94 29.4023 214.721 28.9434 214.554 28.4258C214.388 27.8984 214.305 27.3076 214.305 26.6533V9.4707H218.114V26.6533C218.114 27.1221 218.261 27.498 218.554 27.7812C218.846 28.0547 219.213 28.1914 219.652 28.1914H226.522C227.001 28.1914 227.372 28.0498 227.636 27.7666C227.909 27.4834 228.046 27.1123 228.046 26.6533V21.4971C228.046 21.0186 227.904 20.6475 227.621 20.3838C227.338 20.1104 226.971 19.9736 226.522 19.9736H219.652V16.165H226.522C226.884 16.165 227.264 16.209 227.665 16.2969C228.065 16.375 228.461 16.502 228.851 16.6777C229.252 16.8535 229.633 17.083 229.994 17.3662C230.355 17.6396 230.673 17.9766 230.946 18.377C231.22 18.7676 231.439 19.2217 231.605 19.7393C231.771 20.2568 231.854 20.8428 231.854 21.4971V26.6533Z" fill="white"/>
<path d="M13.2099 0.133873C11.4255 0.631004 9.16874 1.70376 8.01412 2.6457C6.5971 3.74462 4.6815 7.30303 3.39568 11.1754C2.10986 15.0217 0.640357 21.7722 0.168016 25.9324C-0.0943952 28.2087 -0.041913 33.2585 0.272981 35.875C0.666599 39.1195 1.13894 40.3492 2.39852 41.2911C3.10703 41.8406 3.76306 42.0237 5.04887 41.9976C6.30845 41.9976 7.56803 41.6051 9.16874 40.7678C11.2943 39.6166 12.3964 38.7793 15.3879 36.032C16.3851 35.1162 17.5659 34.122 18.012 33.808C20.1113 32.3951 24.3099 31.741 30.9751 31.741C37.6404 31.741 41.839 32.4213 43.9383 33.808C44.3844 34.122 45.5652 35.1162 46.5624 36.032C49.5276 38.7793 50.656 39.6166 52.7816 40.7678C54.3823 41.6313 55.6156 41.9976 56.9014 41.9976C58.161 42.0237 58.8433 41.8406 59.5518 41.2911C60.7064 40.4277 61.2575 39.1456 61.5723 36.6076C62.4121 30.1711 62.0447 25.1474 60.2078 17.2718C58.9482 11.8295 58.1348 9.44855 56.5865 6.43959C55.0645 3.45681 54.3035 2.6457 52.0468 1.49444C50.1837 0.526345 48.8191 0.107708 47.4808 0.029214C45.6964 -0.0754453 44.2794 0.369356 41.8127 1.78226C39.0574 3.37831 37.5617 3.63996 31.0014 3.63996C24.5723 3.63996 22.8929 3.37831 20.4262 1.91308C19.0617 1.10197 18.2482 0.709498 17.1461 0.343191C16.0964 -0.0231165 14.1283 -0.101611 13.2099 0.133873ZM49.1865 5.31451C50.8659 5.73314 51.6532 7.774 50.656 9.1869C49.5014 10.8091 47.1397 10.6521 46.2475 8.89909C45.5652 7.61701 46.3 5.86397 47.6908 5.36684C48.3206 5.15752 48.5042 5.15752 49.1865 5.31451ZM15.3879 7.14604C16.1751 7.48619 16.9361 8.2188 17.3297 8.97758C17.8021 9.89335 17.8546 11.2016 17.4872 12.1697C17.0148 13.4518 15.834 14.3937 14.4695 14.603C13.1312 14.8123 11.9765 14.446 11.0319 13.5041C9.35242 11.8295 9.53611 9.02991 11.4255 7.59085C12.5276 6.77974 14.1546 6.59658 15.3879 7.14604ZM45.0404 10.2858C46.3787 10.9661 46.7723 12.8238 45.8539 14.0274C45.3291 14.7338 44.6206 15.0478 43.7808 15.0478C42.9936 15.0478 42.5213 14.8123 41.944 14.2367C41.4454 13.7396 41.2879 13.2948 41.2879 12.5098C41.2879 11.7511 41.5241 11.2016 42.0489 10.6783C42.8624 9.91951 44.017 9.76253 45.0404 10.2858ZM54.3035 10.155C54.7759 10.3382 55.3794 10.9399 55.6156 11.4632C56.4816 13.3733 54.7496 15.4926 52.7028 14.9955C51.5482 14.7338 50.7347 13.6872 50.7347 12.5098C50.761 10.7045 52.5716 9.50088 54.3035 10.155ZM49.8163 15.0217C51.3383 15.8851 51.5482 17.9521 50.2624 19.1295C49.1078 20.1761 47.5596 19.993 46.4837 18.6847C46.195 18.3184 46.0901 18.0568 46.0376 17.5335C45.9326 16.3822 46.4312 15.4665 47.4546 14.9432C48.0319 14.6553 49.2128 14.6815 49.8163 15.0217ZM24.2312 18.1091C24.3886 18.1876 24.4411 18.5539 24.4673 19.7313L24.5198 21.2227H25.9368C27.7212 21.2227 27.7475 21.2489 27.7475 22.6095C27.7475 24.1008 27.7737 24.0747 26.0156 24.0747H24.5198V25.5137C24.5198 27.3453 24.4673 27.4499 23.0503 27.4499C21.5808 27.4499 21.5283 27.3976 21.5283 25.5661V24.1008H20.0588C19.0879 24.1008 18.5368 24.0485 18.4319 23.9439C18.3269 23.8392 18.2744 23.3944 18.2744 22.7141C18.2744 21.2489 18.2744 21.2489 20.0851 21.2489H21.5021V19.836C21.5021 18.0306 21.5021 18.0306 22.9716 18.0306C23.5489 17.9783 24.1262 18.0306 24.2312 18.1091ZM39.451 19.1295C39.8184 19.3127 40.3432 19.6528 40.6057 19.9145C41.7603 21.0657 42.0752 22.9234 41.3666 24.3363C40.1858 26.7173 37.1418 27.3453 35.2 25.5922C33.4943 24.0747 33.4156 21.4844 35.0163 19.9145C36.2234 18.7371 37.9028 18.4231 39.451 19.1295Z" fill="white"/>
</svg>
