<svg width="56" height="34" viewBox="0 0 56 34" fill="none" xmlns="http://www.w3.org/2000/svg">
<path d="M0 2C0 0.89543 0.895431 0 2 0H54C55.1046 0 56 0.895431 56 2V32C56 33.1046 55.1046 34 54 34H2C0.89543 34 0 33.1046 0 32V2Z" fill="#030517"/>
<path d="M22.648 7C17.3281 7 13 11.3277 13 16.6471C13 21.9666 17.3281 26.2942 22.648 26.2942C27.9679 26.2942 32.2961 21.9666 32.2961 16.6471C32.2961 11.3277 27.9679 7 22.648 7Z" fill="#FFBC4F"/>
<path d="M33.3519 7C28.032 7 23.7039 11.3277 23.7039 16.6471C23.7039 21.9666 28.032 26.2942 33.3519 26.2942C38.6718 26.2942 42.9999 21.9666 42.9999 16.6471C42.9999 11.3277 38.6718 7 33.3519 7Z" fill="#F56161"/>
<path d="M27.4616 19.813C27.4616 19.3275 27.0682 18.9341 26.5827 18.9341H23.9785C24.1275 19.5447 24.3347 20.1327 24.594 20.6919H26.5827C27.0682 20.6919 27.4616 20.2984 27.4616 19.813Z" fill="#FFBC4F"/>
<path d="M27.4616 14.0928C27.4616 13.6075 27.0681 13.2139 26.5827 13.2139H24.3358C24.1206 13.7767 23.9565 14.3645 23.8496 14.9717H26.5827C27.0681 14.9717 27.4616 14.5782 27.4616 14.0928Z" fill="#FFBC4F"/>
<path d="M29.8795 16.9529C29.8795 16.4674 29.4859 16.074 29.0006 16.074H23.7213C23.71 16.2637 23.7039 16.4546 23.7039 16.6471C23.7039 17.0481 23.7288 17.4434 23.7766 17.8318H29.0006C29.4859 17.8318 29.8795 17.4383 29.8795 16.9529Z" fill="#FFBC4F"/>
</svg>
